<svg width="38" height="38" viewBox="0 0 38 38" fill="none" xmlns="http://www.w3.org/2000/svg">
<path d="M15.8333 17.9445H4.22222C3.66232 17.9445 3.12535 17.722 2.72944 17.3261C2.33353 16.9302 2.11111 16.3932 2.11111 15.8333V8.44445C2.11111 7.88455 2.33353 7.34758 2.72944 6.95167C3.12535 6.55576 3.66232 6.33334 4.22222 6.33334H15.8333C16.3932 6.33334 16.9302 6.55576 17.3261 6.95167C17.722 7.34758 17.9444 7.88455 17.9444 8.44445V15.8333C17.9444 16.3932 17.722 16.9302 17.3261 17.3261C16.9302 17.722 16.3932 17.9445 15.8333 17.9445ZM4.22222 8.44445V15.8333H15.8333V8.44445H4.22222Z" fill="black"/>
<path d="M33.7778 17.9445H22.1667C21.6068 17.9445 21.0698 17.722 20.6739 17.3261C20.278 16.9302 20.0556 16.3932 20.0556 15.8333V8.44445C20.0556 7.88455 20.278 7.34758 20.6739 6.95167C21.0698 6.55576 21.6068 6.33334 22.1667 6.33334H33.7778C34.3377 6.33334 34.8747 6.55576 35.2706 6.95167C35.6665 7.34758 35.8889 7.88455 35.8889 8.44445V15.8333C35.8889 16.3932 35.6665 16.9302 35.2706 17.3261C34.8747 17.722 34.3377 17.9445 33.7778 17.9445ZM22.1667 8.44445V15.8333H33.7778V8.44445H22.1667Z" fill="black"/>
<path d="M15.8333 31.6667H4.22222C3.66232 31.6667 3.12535 31.4442 2.72944 31.0483C2.33353 30.6524 2.11111 30.1154 2.11111 29.5555V22.1667C2.11111 21.6068 2.33353 21.0698 2.72944 20.6739C3.12535 20.278 3.66232 20.0555 4.22222 20.0555H15.8333C16.3932 20.0555 16.9302 20.278 17.3261 20.6739C17.722 21.0698 17.9444 21.6068 17.9444 22.1667V29.5555C17.9444 30.1154 17.722 30.6524 17.3261 31.0483C16.9302 31.4442 16.3932 31.6667 15.8333 31.6667ZM4.22222 22.1667V29.5555H15.8333V22.1667H4.22222Z" fill="black"/>
<path d="M33.7778 31.6667H22.1667C21.6068 31.6667 21.0698 31.4442 20.6739 31.0483C20.278 30.6524 20.0556 30.1154 20.0556 29.5555V22.1667C20.0556 21.6068 20.278 21.0698 20.6739 20.6739C21.0698 20.278 21.6068 20.0555 22.1667 20.0555H33.7778C34.3377 20.0555 34.8747 20.278 35.2706 20.6739C35.6665 21.0698 35.8889 21.6068 35.8889 22.1667V29.5555C35.8889 30.1154 35.6665 30.6524 35.2706 31.0483C34.8747 31.4442 34.3377 31.6667 33.7778 31.6667ZM22.1667 22.1667V29.5555H33.7778V22.1667H22.1667Z" fill="black"/>
<path d="M15.8333 17.9445H4.22222C3.66232 17.9445 3.12535 17.722 2.72944 17.3261C2.33353 16.9302 2.11111 16.3932 2.11111 15.8333V8.44445C2.11111 7.88455 2.33353 7.34758 2.72944 6.95167C3.12535 6.55576 3.66232 6.33334 4.22222 6.33334H15.8333C16.3932 6.33334 16.9302 6.55576 17.3261 6.95167C17.722 7.34758 17.9444 7.88455 17.9444 8.44445V15.8333C17.9444 16.3932 17.722 16.9302 17.3261 17.3261C16.9302 17.722 16.3932 17.9445 15.8333 17.9445ZM4.22222 8.44445V15.8333H15.8333V8.44445H4.22222Z" fill="black"/>
<path d="M33.7778 17.9445H22.1667C21.1259 17.9445 20.2614 17.1918 20.0872 16.2007C20.0988 16.2017 20.1115 16.2028 20.1231 16.2038C20.197 16.2102 20.2677 16.2123 20.3406 16.2102H35.8551C35.6778 17.1971 34.8154 17.9445 33.7778 17.9445ZM20.0556 8.44445C20.0556 7.27807 21.0003 6.33334 22.1667 6.33334H22.5593L20.0556 10.6062V8.44445Z" fill="black"/>
<path d="M15.8333 31.6667H4.22222C3.66232 31.6667 3.12535 31.4442 2.72944 31.0483C2.33353 30.6524 2.11111 30.1154 2.11111 29.5555V22.1667C2.11111 21.6068 2.33353 21.0698 2.72944 20.6739C3.12535 20.278 3.66232 20.0555 4.22222 20.0555H15.8333C16.3932 20.0555 16.9302 20.278 17.3261 20.6739C17.722 21.0698 17.9444 21.6068 17.9444 22.1667V29.5555C17.9444 30.1154 17.722 30.6524 17.3261 31.0483C16.9302 31.4442 16.3932 31.6667 15.8333 31.6667ZM4.22222 22.1667V29.5555H15.8333V22.1667H4.22222Z" fill="black"/>
<path d="M33.7778 31.6667H22.1667C21.6068 31.6667 21.0698 31.4442 20.6739 31.0483C20.278 30.6524 20.0556 30.1154 20.0556 29.5555V22.1667C20.0556 21.6068 20.278 21.0698 20.6739 20.6739C21.0698 20.278 21.6068 20.0555 22.1667 20.0555H33.7778C34.3377 20.0555 34.8747 20.278 35.2706 20.6739C35.6665 21.0698 35.8889 21.6068 35.8889 22.1667V29.5555C35.8889 30.1154 35.6665 30.6524 35.2706 31.0483C34.8747 31.4442 34.3377 31.6667 33.7778 31.6667ZM22.1667 22.1667V29.5555H33.7778V22.1667H22.1667Z" fill="black"/>
</svg>
