<svg width="38" height="38" viewBox="0 0 38 38" fill="none" xmlns="http://www.w3.org/2000/svg">
<path d="M35.4561 6.53389C35.3265 6.42853 35.1738 6.35542 35.0105 6.32055C34.8472 6.28569 34.678 6.29007 34.5167 6.33334L24.3728 9.5L14.2078 4.33834C14.0688 4.27403 13.9176 4.24072 13.7644 4.24072C13.6113 4.24072 13.4601 4.27403 13.3211 4.33834L2.76556 8.65556C2.57113 8.73543 2.40497 8.87153 2.28838 9.04642C2.17178 9.22131 2.11006 9.42703 2.11111 9.63723V31.255C2.11197 31.4279 2.15529 31.5979 2.23724 31.7501C2.3192 31.9024 2.43729 32.0321 2.58114 32.128C2.72499 32.2239 2.89019 32.283 3.06222 32.3001C3.23426 32.3172 3.40786 32.2918 3.56778 32.2261L13.7222 28.0567L23.845 33.25C23.9952 33.327 24.1617 33.3668 24.3306 33.3661C24.4355 33.382 24.5423 33.382 24.6472 33.3661L35.2028 30.0728C35.4252 30.0031 35.6183 29.8618 35.752 29.6708C35.8856 29.4799 35.9523 29.2501 35.9417 29.0172V7.38889C35.9362 7.21767 35.8891 7.05036 35.8045 6.9014C35.7199 6.75244 35.6003 6.62631 35.4561 6.53389ZM33.7778 28.2361L24.9956 30.9806V28.5633H23.3067V30.6744L14.44 26.125V24.3411H12.7511V26.1567L4.22222 29.6717V10.3339L12.7511 6.81889V9.29945H14.44V6.82945L23.3067 11.3683V13.585H24.9956V11.6111L33.7778 8.82445V28.2361Z" fill="black"/>
<path d="M24.9956 15.8967H23.3067V19.9183H24.9956V15.8967Z" fill="black"/>
<path d="M24.9956 22.23H23.3067V26.2517H24.9956V22.23Z" fill="black"/>
<path d="M14.44 11.6744H12.7511V15.6961H14.44V11.6744Z" fill="black"/>
<path d="M14.44 18.0817H12.7511V22.04H14.44V18.0817Z" fill="black"/>
</svg>
