<svg width="115" height="33" viewBox="0 0 115 33" fill="none" xmlns="http://www.w3.org/2000/svg">
<path d="M24.376 16.648C24.584 16.648 24.744 16.744 24.856 16.936C24.984 17.128 25.048 17.392 25.048 17.728C25.048 18.352 24.896 18.848 24.592 19.216C23.008 21.152 21.32 22.12 19.528 22.12C17.976 22.12 16.736 21.52 15.808 20.32C14.88 19.12 14.416 17.4 14.416 15.16C14.416 14.616 14.44 14.072 14.488 13.528C13.432 13.72 12.28 13.864 11.032 13.96C10.2 14.024 9.632 14.064 9.328 14.08C9.008 15.712 8.56 17.712 7.984 20.08C7.648 21.472 7.008 22.168 6.064 22.168C5.04 22.168 4.528 21.704 4.528 20.776C4.528 20.568 4.568 20.28 4.648 19.912C5.192 17.72 5.624 15.864 5.944 14.344L4.792 14.392C4.264 14.392 3.88 14.304 3.64 14.128C3.4 13.936 3.28 13.632 3.28 13.216C3.28 12.688 3.432 12.304 3.736 12.064C4.04 11.808 4.544 11.664 5.248 11.632L6.52 11.584C6.936 9.328 7.144 7.608 7.144 6.424C7.144 5.672 7.032 5.16 6.808 4.888C6.584 4.616 6.288 4.48 5.92 4.48C4.8 4.48 3.536 5.416 2.128 7.288C1.92 7.56 1.688 7.696 1.432 7.696C1.208 7.696 1.016 7.592 0.856 7.384C0.696 7.176 0.616 6.912 0.616 6.592C0.616 6.096 0.816 5.568 1.216 5.008C1.92 4.032 2.808 3.232 3.88 2.608C4.952 1.968 6.04 1.648 7.144 1.648C8.184 1.648 8.984 2.008 9.544 2.728C10.12 3.432 10.408 4.536 10.408 6.04C10.408 7.368 10.216 9.168 9.832 11.44L12.184 11.32C13.192 11.272 14.056 11.192 14.776 11.08C15.064 9.32 15.504 7.672 16.096 6.136C16.688 4.6 17.424 3.352 18.304 2.392C19.184 1.432 20.168 0.951999 21.256 0.951999C22.056 0.951999 22.688 1.272 23.152 1.912C23.616 2.536 23.848 3.36 23.848 4.384C23.848 8.352 21.824 11.104 17.776 12.64C17.728 13.28 17.704 13.944 17.704 14.632C17.704 16.312 17.912 17.504 18.328 18.208C18.744 18.912 19.328 19.264 20.08 19.264C20.736 19.264 21.336 19.096 21.88 18.76C22.424 18.408 23.04 17.816 23.728 16.984C23.92 16.76 24.136 16.648 24.376 16.648ZM21.136 3.04C20.784 3.04 20.408 3.36 20.008 4C19.624 4.64 19.256 5.512 18.904 6.616C18.552 7.72 18.272 8.928 18.064 10.24C19.344 9.712 20.288 8.96 20.896 7.984C21.504 7.008 21.808 5.752 21.808 4.216C21.808 3.848 21.744 3.56 21.616 3.352C21.488 3.144 21.328 3.04 21.136 3.04ZM36.9263 16.648C37.1343 16.648 37.2943 16.744 37.4063 16.936C37.5343 17.128 37.5983 17.392 37.5983 17.728C37.5983 18.368 37.4463 18.864 37.1423 19.216C36.5503 19.936 35.7103 20.6 34.6223 21.208C33.5503 21.816 32.3983 22.12 31.1663 22.12C29.4863 22.12 28.1823 21.664 27.2543 20.752C26.3263 19.84 25.8623 18.592 25.8623 17.008C25.8623 15.904 26.0943 14.88 26.5583 13.936C27.0223 12.976 27.6623 12.216 28.4783 11.656C29.3103 11.096 30.2463 10.816 31.2863 10.816C32.2143 10.816 32.9583 11.096 33.5183 11.656C34.0783 12.2 34.3583 12.944 34.3583 13.888C34.3583 14.992 33.9583 15.944 33.1583 16.744C32.3743 17.528 31.0383 18.152 29.1503 18.616C29.5503 19.352 30.3103 19.72 31.4303 19.72C32.1503 19.72 32.9663 19.472 33.8783 18.976C34.8063 18.464 35.6063 17.8 36.2783 16.984C36.4703 16.76 36.6863 16.648 36.9263 16.648ZM30.8783 13.168C30.2863 13.168 29.7823 13.512 29.3663 14.2C28.9663 14.888 28.7663 15.72 28.7663 16.696V16.744C29.7103 16.52 30.4543 16.184 30.9983 15.736C31.5423 15.288 31.8143 14.768 31.8143 14.176C31.8143 13.872 31.7263 13.632 31.5503 13.456C31.3903 13.264 31.1663 13.168 30.8783 13.168ZM38.479 22.12C37.487 22.12 36.695 21.76 36.103 21.04C35.511 20.32 35.215 19.376 35.215 18.208C35.215 16.928 35.511 15.72 36.103 14.584C36.695 13.432 37.479 12.512 38.455 11.824C39.447 11.12 40.495 10.768 41.599 10.768C41.951 10.768 42.183 10.84 42.295 10.984C42.423 11.112 42.527 11.352 42.607 11.704C42.943 11.64 43.295 11.608 43.663 11.608C44.447 11.608 44.839 11.888 44.839 12.448C44.839 12.784 44.719 13.584 44.479 14.848C44.111 16.688 43.927 17.968 43.927 18.688C43.927 18.928 43.983 19.12 44.095 19.264C44.223 19.408 44.383 19.48 44.575 19.48C44.879 19.48 45.247 19.288 45.679 18.904C46.111 18.504 46.695 17.864 47.431 16.984C47.623 16.76 47.839 16.648 48.079 16.648C48.287 16.648 48.447 16.744 48.559 16.936C48.687 17.128 48.751 17.392 48.751 17.728C48.751 18.368 48.599 18.864 48.295 19.216C47.639 20.032 46.943 20.72 46.207 21.28C45.471 21.84 44.759 22.12 44.071 22.12C43.543 22.12 43.055 21.944 42.607 21.592C42.175 21.224 41.847 20.728 41.623 20.104C40.791 21.448 39.743 22.12 38.479 22.12ZM39.343 19.696C39.695 19.696 40.031 19.488 40.351 19.072C40.671 18.656 40.903 18.104 41.047 17.416L41.935 13C41.263 13.016 40.639 13.272 40.063 13.768C39.503 14.248 39.055 14.888 38.719 15.688C38.383 16.488 38.215 17.336 38.215 18.232C38.215 18.728 38.311 19.096 38.503 19.336C38.711 19.576 38.991 19.696 39.343 19.696ZM56.4964 14.104C56.8484 14.104 57.1444 14.232 57.3844 14.488C57.6404 14.728 57.7684 15.032 57.7684 15.4C57.7684 15.608 57.7204 15.832 57.6244 16.072C57.3684 16.664 57.0084 17.16 56.5444 17.56C56.0804 17.96 55.5684 18.16 55.0084 18.16C54.5604 18.16 54.1764 18 53.8564 17.68C53.5524 17.36 53.4004 16.928 53.4004 16.384C53.4004 16.08 53.4164 15.752 53.4484 15.4C53.4804 15.144 53.4964 14.968 53.4964 14.872C53.4964 14.744 53.4644 14.648 53.4004 14.584C53.3524 14.52 53.2884 14.488 53.2084 14.488C52.9844 14.488 52.6804 14.76 52.2964 15.304C51.9124 15.832 51.5284 16.536 51.1444 17.416C50.7604 18.296 50.4484 19.224 50.2084 20.2C50.0324 20.968 49.8324 21.48 49.6084 21.736C49.3844 21.992 49.0164 22.12 48.5044 22.12C47.8964 22.12 47.4644 21.8 47.2084 21.16C46.9684 20.52 46.8484 19.496 46.8484 18.088C46.8484 16.008 47.1444 14.032 47.7364 12.16C47.8804 11.696 48.1124 11.36 48.4324 11.152C48.7684 10.928 49.2324 10.816 49.8244 10.816C50.1444 10.816 50.3684 10.856 50.4964 10.936C50.6244 11.016 50.6884 11.168 50.6884 11.392C50.6884 11.648 50.5684 12.224 50.3284 13.12C50.1684 13.76 50.0404 14.32 49.9444 14.8C49.8484 15.28 49.7684 15.872 49.7044 16.576C50.2324 15.2 50.8244 14.08 51.4804 13.216C52.1364 12.352 52.7764 11.736 53.4004 11.368C54.0244 11 54.5924 10.816 55.1044 10.816C55.5684 10.816 55.9204 10.952 56.1604 11.224C56.4164 11.48 56.5444 11.864 56.5444 12.376C56.5444 12.68 56.4564 13.256 56.2804 14.104H56.4964ZM71.7308 22.192C69.6028 22.192 67.8988 21.792 66.6188 20.992C65.3388 20.176 64.6988 18.936 64.6988 17.272C64.6988 16.392 64.8508 15.72 65.1548 15.256C65.4588 14.792 65.9068 14.56 66.4988 14.56C66.9308 14.56 67.2828 14.672 67.5548 14.896C67.8268 15.12 67.9628 15.408 67.9628 15.76C67.9628 16.08 67.9388 16.36 67.8908 16.6C67.8908 16.664 67.8748 16.776 67.8428 16.936C67.8268 17.096 67.8188 17.264 67.8188 17.44C67.8188 18.16 68.1788 18.696 68.8988 19.048C69.6348 19.4 70.6588 19.576 71.9708 19.576C73.3308 19.576 74.3948 19.336 75.1628 18.856C75.9308 18.36 76.3148 17.672 76.3148 16.792C76.3148 16.248 76.1388 15.784 75.7868 15.4C75.4348 15 74.9948 14.672 74.4668 14.416C73.9388 14.144 73.1948 13.816 72.2348 13.432C71.0028 12.952 69.9948 12.496 69.2108 12.064C68.4428 11.632 67.7788 11.048 67.2188 10.312C66.6748 9.56 66.4028 8.632 66.4028 7.528C66.4028 6.376 66.7068 5.352 67.3148 4.456C67.9388 3.56 68.8268 2.864 69.9788 2.368C71.1468 1.872 72.5148 1.624 74.0828 1.624C75.2508 1.624 76.3228 1.8 77.2988 2.152C78.2748 2.488 79.0508 3.008 79.6268 3.712C80.2188 4.416 80.5148 5.28 80.5148 6.304C80.5148 7.312 80.3628 8.072 80.0588 8.584C79.7548 9.096 79.3068 9.352 78.7148 9.352C78.2988 9.352 77.9468 9.224 77.6588 8.968C77.3868 8.712 77.2508 8.408 77.2508 8.056C77.2508 7.752 77.2748 7.472 77.3228 7.216C77.3708 6.736 77.3948 6.432 77.3948 6.304C77.3948 5.632 77.0668 5.12 76.4108 4.768C75.7548 4.416 74.9388 4.24 73.9628 4.24C72.5868 4.24 71.5308 4.496 70.7948 5.008C70.0748 5.504 69.7148 6.208 69.7148 7.12C69.7148 7.728 69.8988 8.248 70.2668 8.68C70.6508 9.112 71.1228 9.472 71.6828 9.76C72.2428 10.048 73.0268 10.392 74.0348 10.792C75.2508 11.288 76.2268 11.736 76.9628 12.136C77.6988 12.536 78.3228 13.08 78.8348 13.768C79.3628 14.456 79.6268 15.304 79.6268 16.312C79.6268 18.2 78.9068 19.656 77.4668 20.68C76.0428 21.688 74.1308 22.192 71.7308 22.192ZM94.4914 16.648C94.6994 16.648 94.8594 16.744 94.9714 16.936C95.0994 17.128 95.1634 17.392 95.1634 17.728C95.1634 18.368 95.0114 18.864 94.7074 19.216C94.0194 20.064 93.2754 20.76 92.4754 21.304C91.6914 21.848 90.7954 22.12 89.7874 22.12C88.9394 22.12 88.2514 21.816 87.7234 21.208C86.8114 21.8 85.8594 22.104 84.8674 22.12C84.6594 25.208 84.1874 27.784 83.4514 29.848C82.7154 31.928 81.6354 32.968 80.2114 32.968C79.3474 32.968 78.7074 32.656 78.2914 32.032C77.8754 31.408 77.6674 30.544 77.6674 29.44C77.6674 27.872 78.0274 26.04 78.7474 23.944C79.4674 21.864 80.5794 19.568 82.0834 17.056C82.0834 14.72 82.0674 13.096 82.0354 12.184C82.0194 11.72 82.2034 11.352 82.5874 11.08C82.9714 10.808 83.4514 10.672 84.0274 10.672C84.3634 10.672 84.6034 10.744 84.7474 10.888C84.9074 11.016 84.9954 11.28 85.0114 11.68C85.0114 12.08 85.0194 12.376 85.0354 12.568C85.5474 11.928 86.0514 11.472 86.5474 11.2C87.0434 10.912 87.5714 10.768 88.1314 10.768C89.0274 10.768 89.7554 11.128 90.3154 11.848C90.8914 12.568 91.1794 13.512 91.1794 14.68C91.1794 15.528 91.0434 16.352 90.7714 17.152C90.4994 17.952 90.1234 18.68 89.6434 19.336C89.9794 19.432 90.2594 19.48 90.4834 19.48C91.0114 19.48 91.5154 19.288 91.9954 18.904C92.4754 18.52 93.0914 17.88 93.8434 16.984C94.0354 16.76 94.2514 16.648 94.4914 16.648ZM84.9874 19.816C85.5634 19.688 86.0914 19.376 86.5714 18.88C87.0674 18.368 87.4594 17.744 87.7474 17.008C88.0354 16.256 88.1794 15.472 88.1794 14.656C88.1794 14.176 88.0834 13.816 87.8914 13.576C87.6994 13.32 87.4434 13.192 87.1234 13.192C86.5474 13.192 85.8514 13.8 85.0354 15.016C85.0194 15.72 85.0114 16.752 85.0114 18.112C85.0114 18.848 85.0034 19.416 84.9874 19.816ZM80.4034 30.616C80.8354 30.616 81.1954 29.672 81.4834 27.784C81.7714 25.912 81.9554 23.576 82.0354 20.776C81.3474 22.376 80.8034 23.904 80.4034 25.36C80.0034 26.816 79.8034 28.04 79.8034 29.032C79.8034 29.544 79.8674 29.936 79.9954 30.208C80.1074 30.48 80.2434 30.616 80.4034 30.616ZM105.47 14.632C105.678 14.632 105.838 14.736 105.95 14.944C106.062 15.152 106.118 15.416 106.118 15.736C106.118 16.504 105.886 16.96 105.422 17.104C104.462 17.44 103.406 17.632 102.254 17.68C101.95 19.024 101.35 20.104 100.454 20.92C99.5581 21.72 98.5421 22.12 97.4061 22.12C96.4461 22.12 95.6221 21.888 94.9341 21.424C94.2621 20.96 93.7501 20.344 93.3981 19.576C93.0461 18.808 92.8701 17.976 92.8701 17.08C92.8701 15.864 93.1021 14.784 93.5661 13.84C94.0301 12.88 94.6701 12.136 95.4861 11.608C96.3021 11.064 97.2061 10.792 98.1981 10.792C99.4141 10.792 100.39 11.216 101.126 12.064C101.878 12.896 102.318 13.928 102.446 15.16C103.198 15.112 104.094 14.952 105.134 14.68C105.262 14.648 105.374 14.632 105.47 14.632ZM97.5981 19.576C98.1101 19.576 98.5501 19.368 98.9181 18.952C99.3021 18.536 99.5581 17.936 99.6861 17.152C99.1901 16.816 98.8061 16.376 98.5341 15.832C98.2781 15.288 98.1501 14.712 98.1501 14.104C98.1501 13.848 98.1741 13.592 98.2221 13.336H98.1021C97.4621 13.336 96.9261 13.648 96.4941 14.272C96.0781 14.88 95.8701 15.744 95.8701 16.864C95.8701 17.744 96.0381 18.416 96.3741 18.88C96.7261 19.344 97.1341 19.576 97.5981 19.576ZM108.628 13.096C108.596 13.896 108.58 14.52 108.58 14.968C108.58 16.12 108.636 17.024 108.748 17.68C108.876 18.32 109.076 18.784 109.348 19.072C109.636 19.344 110.028 19.48 110.524 19.48C110.78 19.48 111.084 19.4 111.436 19.24C111.788 19.08 112.108 18.872 112.396 18.616C112.572 18.456 112.748 18.376 112.924 18.376C113.116 18.376 113.268 18.488 113.38 18.712C113.508 18.92 113.572 19.176 113.572 19.48C113.572 19.784 113.508 20.08 113.38 20.368C113.268 20.656 113.092 20.896 112.852 21.088C112.02 21.776 111.076 22.12 110.02 22.12C108.5 22.12 107.388 21.488 106.684 20.224C105.98 18.944 105.628 17.28 105.628 15.232C105.628 14.528 105.652 13.816 105.7 13.096H104.764C104.284 13.096 103.956 13.008 103.78 12.832C103.62 12.656 103.54 12.376 103.54 11.992C103.54 11.096 103.9 10.648 104.62 10.648H105.988C106.26 8.888 106.676 7.28 107.236 5.824C107.796 4.368 108.468 3.208 109.252 2.344C110.052 1.48 110.908 1.048 111.82 1.048C112.492 1.048 113.02 1.344 113.404 1.936C113.788 2.528 113.98 3.272 113.98 4.168C113.98 6.648 112.94 8.808 110.86 10.648H113.548C113.804 10.648 113.988 10.704 114.1 10.816C114.212 10.928 114.268 11.136 114.268 11.44C114.268 12.544 113.364 13.096 111.556 13.096H108.628ZM111.172 3.352C110.932 3.352 110.66 3.656 110.356 4.264C110.068 4.856 109.788 5.688 109.516 6.76C109.26 7.816 109.044 8.992 108.868 10.288C109.812 9.472 110.516 8.56 110.98 7.552C111.46 6.528 111.7 5.6 111.7 4.768C111.7 3.824 111.524 3.352 111.172 3.352Z" fill="black"/>
</svg>
